<?xml version="1.0" encoding="utf-8"?>
<svg width="724px" height="315px" viewBox="0 0 724 315" version="1.1" xmlns:xlink="http://www.w3.org/1999/xlink" xmlns="http://www.w3.org/2000/svg">
  <desc>Created with Lunacy</desc>
  <g id="Z-Toolbar">
    <path d="M0 0L724 0L724 315L0 315L0 0Z" id="Rectangle" fill="#FFFFFF" stroke="none" />
    <g id="Z-Toolbar" transform="translate(230 22)">
      <path d="M292.656 99.5L299.184 99.5L299.184 158.252Q299.184 161.036 300.72 162.62Q302.256 164.204 305.04 164.204Q306.096 164.204 307.536 163.916Q308.976 163.628 310.224 163.148L311.376 168.428Q309.552 169.196 306.912 169.676Q304.272 170.156 302.352 170.156Q297.84 170.156 295.248 167.612Q292.656 165.068 292.656 160.46L292.656 99.5ZM332.064 167.564Q337.008 170.54 342.96 170.54Q347.952 170.54 352.32 168.476Q356.688 166.412 359.856 162.908Q363.024 159.404 364.848 154.7Q366.672 149.996 366.672 144.716Q366.672 139.82 365.088 135.164Q363.504 130.508 360.576 126.812Q357.648 123.116 353.472 120.908Q349.296 118.7 344.016 118.7Q337.776 118.7 333.072 121.82Q328.368 124.94 325.008 130.028L325.008 99.5L318.48 99.5L318.48 169.58L324.336 169.58L324.336 159.884Q327.12 164.588 332.064 167.564ZM14.448 164.3L60.816 107.372L15.216 107.372L15.216 101.42L68.592 101.42L68.592 106.7L22.8 163.628L68.496 163.628L68.496 169.58L14.448 169.58L14.448 164.3ZM145.008 107.372L169.296 107.372L169.296 101.42L114 101.42L114 107.372L138.288 107.372L138.288 169.58L145.008 169.58L145.008 107.372ZM199.44 170.54Q193.968 170.54 189.456 168.476Q184.944 166.412 181.632 162.86Q178.32 159.308 176.496 154.604Q174.672 149.9 174.672 144.716Q174.672 139.436 176.544 134.732Q178.416 130.028 181.728 126.476Q185.04 122.924 189.552 120.812Q194.064 118.7 199.44 118.7Q204.816 118.7 209.376 120.812Q213.936 122.924 217.248 126.476Q220.56 130.028 222.432 134.732Q224.304 139.436 224.304 144.716Q224.304 149.9 222.48 154.604Q220.656 159.308 217.344 162.86Q214.032 166.412 209.472 168.476Q204.912 170.54 199.44 170.54ZM246.576 168.476Q251.088 170.54 256.56 170.54Q262.032 170.54 266.592 168.476Q271.152 166.412 274.464 162.86Q277.776 159.308 279.6 154.604Q281.424 149.9 281.424 144.716Q281.424 139.436 279.552 134.732Q277.68 130.028 274.368 126.476Q271.056 122.924 266.496 120.812Q261.936 118.7 256.56 118.7Q251.184 118.7 246.672 120.812Q242.16 122.924 238.848 126.476Q235.536 130.028 233.664 134.732Q231.792 139.436 231.792 144.716Q231.792 149.9 233.616 154.604Q235.44 159.308 238.752 162.86Q242.064 166.412 246.576 168.476ZM390.288 170.54Q386.736 170.54 383.712 169.34Q380.688 168.14 378.432 166.028Q376.176 163.916 374.928 161.084Q373.68 158.252 373.68 154.988Q373.68 151.724 375.216 148.94Q376.752 146.156 379.536 144.14Q382.32 142.124 386.16 141.02Q390 139.916 394.608 139.916Q398.448 139.916 402.384 140.588Q406.32 141.26 409.392 142.508L409.392 137.996Q409.392 131.372 405.648 127.484Q401.904 123.596 395.28 123.596Q391.44 123.596 387.408 125.132Q383.376 126.668 379.248 129.548L376.944 125.228Q386.64 118.7 395.76 118.7Q405.168 118.7 410.544 123.98Q415.92 129.26 415.92 138.572L415.92 161.132Q415.92 163.82 418.32 163.82L418.32 169.58Q416.688 169.868 415.824 169.868Q413.328 169.868 411.936 168.62Q410.544 167.372 410.448 165.164L410.256 161.228Q406.8 165.74 401.568 168.14Q396.336 170.54 390.288 170.54ZM443.472 128.972Q448.368 125.516 454.992 125.324L454.992 119.372Q454.512 119.276 453.744 119.276Q448.368 119.276 443.664 122.54Q438.96 125.804 436.176 131.564L436.176 119.564L430.032 119.564L430.032 169.58L436.56 169.58L436.56 138.476Q438.576 132.428 443.472 128.972ZM181.296 144.812Q181.296 149.036 182.736 152.636Q184.176 156.236 186.624 158.972Q189.072 161.708 192.384 163.244Q195.696 164.78 199.44 164.78Q203.184 164.78 206.496 163.196Q209.808 161.612 212.304 158.876Q214.8 156.14 216.24 152.492Q217.68 148.844 217.68 144.62Q217.68 140.492 216.24 136.796Q214.8 133.1 212.304 130.364Q209.808 127.628 206.496 126.044Q203.184 124.46 199.44 124.46Q195.696 124.46 192.432 126.044Q189.168 127.628 186.672 130.412Q184.176 133.196 182.736 136.892Q181.296 140.588 181.296 144.812ZM239.856 152.636Q238.416 149.036 238.416 144.812Q238.416 140.588 239.856 136.892Q241.296 133.196 243.792 130.412Q246.288 127.628 249.552 126.044Q252.816 124.46 256.56 124.46Q260.304 124.46 263.616 126.044Q266.928 127.628 269.424 130.364Q271.92 133.1 273.36 136.796Q274.8 140.492 274.8 144.62Q274.8 148.844 273.36 152.492Q271.92 156.14 269.424 158.876Q266.928 161.612 263.616 163.196Q260.304 164.78 256.56 164.78Q252.816 164.78 249.504 163.244Q246.192 161.708 243.744 158.972Q241.296 156.236 239.856 152.636ZM348.96 163.1Q345.552 164.78 341.424 164.78Q338.928 164.78 336.192 163.82Q333.456 162.86 331.104 161.228Q328.752 159.596 327.072 157.34Q325.392 155.084 325.008 152.492L325.008 136.94Q326.16 134.444 327.888 132.188Q329.616 129.932 331.824 128.204Q334.032 126.476 336.624 125.468Q339.216 124.46 342.192 124.46Q346.128 124.46 349.44 126.14Q352.752 127.82 355.104 130.652Q357.456 133.484 358.752 137.132Q360.048 140.78 360.048 144.716Q360.048 148.556 358.656 152.156Q357.264 155.756 354.816 158.588Q352.368 161.42 348.96 163.1ZM78.096 146.444L78.096 140.396L106.128 140.396L106.128 146.444L78.096 146.444ZM391.824 165.548Q396.912 165.548 401.184 163.628Q405.456 161.708 407.664 158.54Q408.528 157.676 408.96 156.668Q409.392 155.66 409.392 154.796L409.392 146.636Q406.128 145.388 402.624 144.716Q399.12 144.044 395.472 144.044Q388.56 144.044 384.24 146.924Q379.92 149.804 379.92 154.508Q379.92 156.812 380.832 158.828Q381.744 160.844 383.328 162.332Q384.912 163.82 387.12 164.684Q389.328 165.548 391.824 165.548Z" />
    </g>
    <g id="iconmonstr-control-panel-10" transform="translate(27 68)">
      <path d="M141.708 0L37.2917 0C16.6917 0 0 16.6992 0 37.2917L0 141.708C0 162.301 16.6917 179 37.2917 179L141.708 179C162.308 179 179 162.301 179 141.708L179 37.2917C179 16.6992 162.308 0 141.708 0ZM67.125 29.8333L52.2083 29.8333L52.2083 89.5L67.125 89.5L67.125 29.8333ZM111.875 29.8333L126.792 29.8333L126.792 52.2083L111.875 52.2083L111.875 29.8333ZM126.792 89.5L141.708 89.5L141.708 67.125L96.9583 67.125L96.9583 89.5L111.875 89.5L111.875 149.167L126.792 149.167L126.792 89.5ZM82.0417 126.792L67.125 126.792L67.125 149.167L52.2083 149.167L52.2083 126.792L37.2917 126.792L37.2917 104.417L82.0417 104.417L82.0417 126.792Z" id="Shape" fill="#000000" fill-rule="evenodd" stroke="none" />
    </g>
  </g>
</svg>